<svg xmlns="http://www.w3.org/2000/svg" viewBox="0 0 500 500"><g id="freepik--background-complete--inject-80"><path d="M159.2,34.84c43.43-.67,91.71-.65,135.16,0-43.46.64-91.72.66-135.16,0Z" style="fill:#ebebeb"></path><path d="M143.9,53.15c44.74-.66,94.48-.65,139.26,0-44.79.65-94.51.66-139.26,0Z" style="fill:#ebebeb"></path><path d="M173.19,34.84a81.24,81.24,0,0,1,0,18.31,81.83,81.83,0,0,1,0-18.31Z" style="fill:#ebebeb"></path><path d="M241.36,34.84a81.24,81.24,0,0,1,0,18.31,81.83,81.83,0,0,1,0-18.31Z" style="fill:#ebebeb"></path><path d="M207.28,53.07a81.92,81.92,0,0,1,0,18.32,81.33,81.33,0,0,1,0-18.32Z" style="fill:#ebebeb"></path><path d="M206.46,404.88c43.42-.67,91.7-.65,135.16,0-43.47.65-91.73.66-135.16,0Z" style="fill:#ebebeb"></path><path d="M174.05,423.19c44.74-.66,94.48-.64,139.26,0-44.79.65-94.51.67-139.26,0Z" style="fill:#ebebeb"></path><path d="M336.2,291.24c27.91-.66,58.8-.66,86.71,0-27.92.66-58.8.66-86.71,0Z" style="fill:#ebebeb"></path><path d="M366.89,309.43c27.91-.66,58.79-.66,86.71,0-27.92.66-58.8.66-86.71,0Z" style="fill:#ebebeb"></path><path d="M241.39,404.88a81.24,81.24,0,0,1,0,18.31,81.83,81.83,0,0,1,0-18.31Z" style="fill:#ebebeb"></path><path d="M309.59,404.88a81.24,81.24,0,0,1,0,18.31,81.83,81.83,0,0,1,0-18.31Z" style="fill:#ebebeb"></path><path d="M377.8,309.43a81.83,81.83,0,0,1,0,18.31,80.66,80.66,0,0,1,0-18.31Z" style="fill:#ebebeb"></path><path d="M446,309.43a81.83,81.83,0,0,1,0,18.31,81.24,81.24,0,0,1,0-18.31Z" style="fill:#ebebeb"></path><path d="M207.28,423.12a81.83,81.83,0,0,1,0,18.31,81.24,81.24,0,0,1,0-18.31Z" style="fill:#ebebeb"></path><path d="M275.59,423.12a81.83,81.83,0,0,1,0,18.31,81.83,81.83,0,0,1,0-18.31Z" style="fill:#ebebeb"></path><path d="M412.21,290.73a81.33,81.33,0,0,1,0,18.32,81.92,81.92,0,0,1,0-18.32Z" style="fill:#ebebeb"></path><path d="M114.62,441.19c-16.23.67-32.58.67-48.81,0,16.23-.67,32.58-.67,48.81,0Z" style="fill:#ebebeb"></path><path d="M133.11,423c-27.91.66-58.79.66-86.71,0,27.92-.66,58.8-.66,86.71,0Z" style="fill:#ebebeb"></path><path d="M54,423a81.83,81.83,0,0,1,0-18.31A81.24,81.24,0,0,1,54,423Z" style="fill:#ebebeb"></path><path d="M87.79,441.7a81.24,81.24,0,0,1,0-18.31,81.83,81.83,0,0,1,0,18.31Z" style="fill:#ebebeb"></path><path d="M212.21,162.13c44.74-.66,94.49-.65,139.26,0-44.78.65-94.51.67-139.26,0Z" style="fill:#ebebeb"></path><path d="M260.42,180.45c30.07-.67,63.51-.65,93.59,0-30.09.65-63.51.66-93.59,0Z" style="fill:#ebebeb"></path><path d="M309.68,143.82a81.83,81.83,0,0,1,0,18.31,80.66,80.66,0,0,1,0-18.31Z" style="fill:#ebebeb"></path><path d="M275.59,162.13a81.92,81.92,0,0,1,0,18.32,81.92,81.92,0,0,1,0-18.32Z" style="fill:#ebebeb"></path><path d="M343.76,162.13a81.33,81.33,0,0,1,0,18.32,81.92,81.92,0,0,1,0-18.32Z" style="fill:#ebebeb"></path><path d="M191.17,233.46c19.27-.68,38.67-.68,57.93,0-19.27.67-38.66.67-57.93,0Z" style="fill:#ebebeb"></path><path d="M177.62,251.77c30.07-.66,63.51-.65,93.6,0-30.1.65-63.52.67-93.6,0Z" style="fill:#ebebeb"></path><path d="M207.31,215.14a81.92,81.92,0,0,1,0,18.32,81.33,81.33,0,0,1,0-18.32Z" style="fill:#ebebeb"></path><path d="M241.39,233.46a81.24,81.24,0,0,1,0,18.31,81.83,81.83,0,0,1,0-18.31Z" style="fill:#ebebeb"></path><rect x="47.2" y="382.11" width="405.6" height="13.24" style="fill:#c7c7c7"></rect><rect x="428" y="334.04" width="1.46" height="46.84" transform="translate(-61.21 89.98) rotate(-11.19)" style="fill:#ebebeb"></rect><rect x="407.1" y="357.19" width="48.84" height="1.47" transform="translate(-14.16 698.05) rotate(-77.02)" style="fill:#ebebeb"></rect><rect x="410.74" y="357.68" width="48.77" height="1.46" transform="translate(-35.13 669.3) rotate(-72.95)" style="fill:#ebebeb"></rect><rect x="431.38" y="334.99" width="1.46" height="46.53" transform="translate(-87.85 146.83) rotate(-17.53)" style="fill:#ebebeb"></rect><rect x="432.41" y="333.8" width="1.47" height="47.13" transform="translate(-8.05 9.98) rotate(-1.31)" style="fill:#ebebeb"></rect><polygon points="440.65 382.11 424.19 382.11 427.45 361.48 437.38 361.48 440.65 382.11" style="fill:#a6a6a6"></polygon><rect x="349.61" y="332.11" width="33.84" height="50" style="fill:#dbdbdb"></rect><rect x="359.63" y="322" width="13.8" height="10.1" style="fill:#a6a6a6"></rect><rect x="354.32" y="344.79" width="24.3" height="23.25" style="fill:#ebebeb"></rect><rect x="385.92" y="325.59" width="29.01" height="56.52" style="fill:#dbdbdb"></rect><rect x="394.51" y="316.93" width="11.83" height="8.66" style="fill:#c7c7c7"></rect><rect x="385.92" y="347.14" width="29.01" height="19.93" style="fill:#c7c7c7"></rect></g><g id="freepik--Mirror--inject-80"><rect x="258.48" y="68.07" width="165.04" height="217.27" transform="translate(682 353.41) rotate(180)" style="fill:#2563EB"></rect><rect x="258.48" y="68.07" width="165.04" height="217.27" transform="translate(682 353.41) rotate(180)" style="opacity:0.4"></rect><rect x="281.57" y="91.16" width="118.87" height="171.1" transform="translate(682 353.41) rotate(180)" style="fill:#fff"></rect><path d="M407.74,79.75a4.47,4.47,0,1,0,4.47-4.48A4.47,4.47,0,0,0,407.74,79.75Z" style="fill:#2563EB"></path><path d="M384.38,79.75a4.48,4.48,0,1,0,4.47-4.48A4.47,4.47,0,0,0,384.38,79.75Z" style="fill:#2563EB"></path><path d="M361,79.75a4.47,4.47,0,1,0,4.47-4.48A4.47,4.47,0,0,0,361,79.75Z" style="fill:#2563EB"></path><path d="M337.67,79.75a4.48,4.48,0,1,0,4.48-4.48A4.48,4.48,0,0,0,337.67,79.75Z" style="fill:#2563EB"></path><path d="M314.32,79.75a4.47,4.47,0,1,0,4.47-4.48A4.47,4.47,0,0,0,314.32,79.75Z" style="fill:#2563EB"></path><path d="M291,79.75a4.47,4.47,0,1,0,4.47-4.48A4.47,4.47,0,0,0,291,79.75Z" style="fill:#2563EB"></path><path d="M384.38,273.66a4.48,4.48,0,1,0,4.47-4.47A4.47,4.47,0,0,0,384.38,273.66Z" style="fill:#2563EB"></path><path d="M361,273.66a4.47,4.47,0,1,0,4.47-4.47A4.47,4.47,0,0,0,361,273.66Z" style="fill:#2563EB"></path><path d="M337.67,273.66a4.48,4.48,0,1,0,4.48-4.47A4.48,4.48,0,0,0,337.67,273.66Z" style="fill:#2563EB"></path><path d="M314.32,273.66a4.47,4.47,0,1,0,4.47-4.47A4.47,4.47,0,0,0,314.32,273.66Z" style="fill:#2563EB"></path><path d="M291,273.66a4.47,4.47,0,1,0,4.47-4.47A4.47,4.47,0,0,0,291,273.66Z" style="fill:#2563EB"></path><path d="M407.74,104a4.47,4.47,0,1,0,4.47-4.48A4.47,4.47,0,0,0,407.74,104Z" style="fill:#2563EB"></path><path d="M407.74,128.23a4.47,4.47,0,1,0,4.47-4.48A4.47,4.47,0,0,0,407.74,128.23Z" style="fill:#2563EB"></path><path d="M407.74,152.47a4.47,4.47,0,1,0,4.47-4.48A4.47,4.47,0,0,0,407.74,152.47Z" style="fill:#2563EB"></path><path d="M407.74,176.7a4.47,4.47,0,1,0,4.47-4.47A4.48,4.48,0,0,0,407.74,176.7Z" style="fill:#2563EB"></path><path d="M407.74,200.94a4.47,4.47,0,1,0,4.47-4.47A4.48,4.48,0,0,0,407.74,200.94Z" style="fill:#2563EB"></path><path d="M407.74,225.18a4.47,4.47,0,1,0,4.47-4.47A4.48,4.48,0,0,0,407.74,225.18Z" style="fill:#2563EB"></path><path d="M407.74,249.42a4.47,4.47,0,1,0,4.47-4.47A4.48,4.48,0,0,0,407.74,249.42Z" style="fill:#2563EB"></path><path d="M407.74,273.66a4.47,4.47,0,1,0,4.47-4.47A4.47,4.47,0,0,0,407.74,273.66Z" style="fill:#2563EB"></path><path d="M265.32,79.75a4.47,4.47,0,1,0,4.47-4.48A4.47,4.47,0,0,0,265.32,79.75Z" style="fill:#2563EB"></path><path d="M265.32,104a4.47,4.47,0,1,0,4.47-4.48A4.47,4.47,0,0,0,265.32,104Z" style="fill:#2563EB"></path><path d="M265.32,128.23a4.47,4.47,0,1,0,4.47-4.48A4.47,4.47,0,0,0,265.32,128.23Z" style="fill:#2563EB"></path><path d="M265.32,152.47a4.47,4.47,0,1,0,4.47-4.48A4.47,4.47,0,0,0,265.32,152.47Z" style="fill:#2563EB"></path><path d="M265.32,176.7a4.47,4.47,0,1,0,4.47-4.47A4.48,4.48,0,0,0,265.32,176.7Z" style="fill:#2563EB"></path><path d="M265.32,200.94a4.47,4.47,0,1,0,4.47-4.47A4.48,4.48,0,0,0,265.32,200.94Z" style="fill:#2563EB"></path><path d="M265.32,225.18a4.47,4.47,0,1,0,4.47-4.47A4.48,4.48,0,0,0,265.32,225.18Z" style="fill:#2563EB"></path><path d="M265.32,249.42a4.47,4.47,0,1,0,4.47-4.47A4.48,4.48,0,0,0,265.32,249.42Z" style="fill:#2563EB"></path><path d="M265.32,273.66a4.47,4.47,0,1,0,4.47-4.47A4.47,4.47,0,0,0,265.32,273.66Z" style="fill:#2563EB"></path><g style="opacity:0.6000000000000001"><path d="M407.74,79.75a4.47,4.47,0,1,0,4.47-4.48A4.47,4.47,0,0,0,407.74,79.75Z" style="fill:#fff"></path><path d="M384.38,79.75a4.48,4.48,0,1,0,4.47-4.48A4.47,4.47,0,0,0,384.38,79.75Z" style="fill:#fff"></path><path d="M361,79.75a4.47,4.47,0,1,0,4.47-4.48A4.47,4.47,0,0,0,361,79.75Z" style="fill:#fff"></path><path d="M337.67,79.75a4.48,4.48,0,1,0,4.48-4.48A4.48,4.48,0,0,0,337.67,79.75Z" style="fill:#fff"></path><path d="M314.32,79.75a4.47,4.47,0,1,0,4.47-4.48A4.47,4.47,0,0,0,314.32,79.75Z" style="fill:#fff"></path><path d="M291,79.75a4.47,4.47,0,1,0,4.47-4.48A4.47,4.47,0,0,0,291,79.75Z" style="fill:#fff"></path><path d="M384.38,273.66a4.48,4.48,0,1,0,4.47-4.47A4.47,4.47,0,0,0,384.38,273.66Z" style="fill:#fff"></path><path d="M361,273.66a4.47,4.47,0,1,0,4.47-4.47A4.47,4.47,0,0,0,361,273.66Z" style="fill:#fff"></path><path d="M337.67,273.66a4.48,4.48,0,1,0,4.48-4.47A4.48,4.48,0,0,0,337.67,273.66Z" style="fill:#fff"></path><path d="M314.32,273.66a4.47,4.47,0,1,0,4.47-4.47A4.47,4.47,0,0,0,314.32,273.66Z" style="fill:#fff"></path><path d="M291,273.66a4.47,4.47,0,1,0,4.47-4.47A4.47,4.47,0,0,0,291,273.66Z" style="fill:#fff"></path><path d="M407.74,104a4.47,4.47,0,1,0,4.47-4.48A4.47,4.47,0,0,0,407.74,104Z" style="fill:#fff"></path><path d="M407.74,128.23a4.47,4.47,0,1,0,4.47-4.48A4.47,4.47,0,0,0,407.74,128.23Z" style="fill:#fff"></path><path d="M407.74,152.47a4.47,4.47,0,1,0,4.47-4.48A4.47,4.47,0,0,0,407.74,152.47Z" style="fill:#fff"></path><path d="M407.74,176.7a4.47,4.47,0,1,0,4.47-4.47A4.48,4.48,0,0,0,407.74,176.7Z" style="fill:#fff"></path><path d="M407.74,200.94a4.47,4.47,0,1,0,4.47-4.47A4.48,4.48,0,0,0,407.74,200.94Z" style="fill:#fff"></path><path d="M407.74,225.18a4.47,4.47,0,1,0,4.47-4.47A4.48,4.48,0,0,0,407.74,225.18Z" style="fill:#fff"></path><path d="M407.74,249.42a4.47,4.47,0,1,0,4.47-4.47A4.48,4.48,0,0,0,407.74,249.42Z" style="fill:#fff"></path><path d="M407.74,273.66a4.47,4.47,0,1,0,4.47-4.47A4.47,4.47,0,0,0,407.74,273.66Z" style="fill:#fff"></path><path d="M265.32,79.75a4.47,4.47,0,1,0,4.47-4.48A4.47,4.47,0,0,0,265.32,79.75Z" style="fill:#fff"></path><path d="M265.32,104a4.47,4.47,0,1,0,4.47-4.48A4.47,4.47,0,0,0,265.32,104Z" style="fill:#fff"></path><path d="M265.32,128.23a4.47,4.47,0,1,0,4.47-4.48A4.47,4.47,0,0,0,265.32,128.23Z" style="fill:#fff"></path><path d="M265.32,152.47a4.47,4.47,0,1,0,4.47-4.48A4.47,4.47,0,0,0,265.32,152.47Z" style="fill:#fff"></path><path d="M265.32,176.7a4.47,4.47,0,1,0,4.47-4.47A4.48,4.48,0,0,0,265.32,176.7Z" style="fill:#fff"></path><path d="M265.32,200.94a4.47,4.47,0,1,0,4.47-4.47A4.48,4.48,0,0,0,265.32,200.94Z" style="fill:#fff"></path><path d="M265.32,225.18a4.47,4.47,0,1,0,4.47-4.47A4.48,4.48,0,0,0,265.32,225.18Z" style="fill:#fff"></path><path d="M265.32,249.42a4.47,4.47,0,1,0,4.47-4.47A4.48,4.48,0,0,0,265.32,249.42Z" style="fill:#fff"></path><path d="M265.32,273.66a4.47,4.47,0,1,0,4.47-4.47A4.47,4.47,0,0,0,265.32,273.66Z" style="fill:#fff"></path></g><g style="opacity:0.2"><polygon points="281.57 91.16 281.57 106.35 400.44 225.23 400.44 182.36 309.23 91.16 281.57 91.16" style="fill:#ebebeb"></polygon><polygon points="281.57 235.43 281.57 262.26 308.38 262.26 281.57 235.43" style="fill:#ebebeb"></polygon><polygon points="281.57 117.17 281.57 138.61 400.44 257.48 400.44 236.05 281.57 117.17" style="fill:#ebebeb"></polygon><polygon points="357.57 91.16 400.44 134.03 400.44 127.94 363.65 91.16 357.57 91.16" style="fill:#ebebeb"></polygon></g></g><g id="freepik--barber-pole--inject-80"><rect x="90.86" y="76.41" width="45.31" height="132.98" style="fill:#fff"></rect><rect x="90.85" y="76.4" width="45.33" height="132.98" style="fill:#fff"></rect><path d="M136.18,76.4c.15,33.15.37,99.84.41,133v.42h-.41l-45.33.08h-.5v-.5l.25-133v-.25h.25l45.33.25Zm0,0-45.33.25c.66-1.61.29,133.12.5,132.73l-.5-.5,45.33.09-.42.41.15-66.38.27-66.6Z" style="fill:#c7c7c7"></path><rect x="87.9" y="69.14" width="51.23" height="7.26" style="fill:#455a64"></rect><rect x="82.81" y="61.88" width="61.42" height="7.26" style="fill:#37474f"></rect><path d="M113.52,40.25h0c-12.52,0-22.66,9.34-22.66,20.85v.78h45.31V61.1C136.17,49.59,126,40.25,113.52,40.25Z" style="fill:#263238"></path><rect x="87.9" y="209.39" width="51.23" height="7.26" transform="translate(227.03 426.04) rotate(180)" style="fill:#455a64"></rect><rect x="82.81" y="216.65" width="61.42" height="7.26" transform="translate(227.03 440.56) rotate(180)" style="fill:#37474f"></rect><path d="M113.52,245.54h0c12.51,0,22.65-9.34,22.65-20.85v-.78H90.86v.78C90.86,236.2,101,245.54,113.52,245.54Z" style="fill:#263238"></path><polygon points="136.18 76.4 136.18 90.82 90.85 125.82 90.85 100.03 121.47 76.4 136.18 76.4" style="fill:#2563EB"></polygon><polygon points="136.17 138.29 90.86 173.28 90.86 147.5 136.17 112.51 136.17 138.29" style="fill:#37474f"></polygon><polygon points="136.18 159.97 136.18 185.76 105.58 209.38 90.85 209.38 90.85 194.97 136.18 159.97" style="fill:#2563EB"></polygon><rect x="97.29" y="76.41" width="7.73" height="132.98" style="fill:#fff;opacity:0.30000000000000004"></rect></g><g id="freepik--character-2--inject-80"><path d="M285.86,466.81H191.41L191,441.24c-3-11.64-4.39-37.12-3.19-45.86a240.41,240.41,0,0,1,16.47-59.11l2.35,0,73.29-.73S283.15,400.56,285.86,466.81Z" style="fill:#263238"></path><path d="M276.75,466.81h-1.84c-.1-5.16-.2-10.34-.32-15.5s-.25-10.59-.4-15.87c0-.17,0-.34,0-.51-.68-25.13-1.6-50.25-2.61-75.37,0-.34.53-.33.55,0C274.35,395.28,275.83,431,276.75,466.81Z" style="fill:#37474f"></path><path d="M361.75,466.81H262.19c-6.42-16.82-11.36-29.61-12.73-33.15-.08-.19-.14-.35-.19-.48l-.2-.51c-2.09-1.15-4.52-2.38-6.91-3.56-5.38-2.65-10.46-4.94-10.46-4.94-23.63-36.77-25.11-87.92-25.11-87.92l73.29-.73,40-.39C327.6,364.14,356.28,452.18,361.75,466.81Z" style="fill:#263238"></path><path d="M327.68,466.81h-2.59c-5.76-13-11.42-26.11-16.54-39.4-10-25.92-18.06-53.53-17.34-81.57a.22.22,0,0,1,.43,0c.2,3.45.5,6.9.81,10.35,2.5,28.29,12,55.72,22.84,81.78C319.29,447.63,323.46,457.23,327.68,466.81Z" style="fill:#37474f"></path><path d="M275.09,434.94a92.81,92.81,0,0,1-15.62-1.26c-5.21-.92-10.09-2.6-15.16-4-4.81-1.37-9.92-1.54-14.85-2.28a52,52,0,0,1-14.57-4.18c-.22-.11-.39.22-.18.32a90.32,90.32,0,0,0,14,5.9c5,1.53,10.2,1.69,15.27,2.88,5.22,1.22,10.24,2.86,15.6,3.43a56.48,56.48,0,0,0,15.58-.42C275.35,435.25,275.28,434.94,275.09,434.94Z" style="fill:#37474f"></path><path d="M263.63,466.81h-2.91q-2.5-6.92-4.89-13.85c-2.19-6.43-4.6-12.8-6.43-19.31-.05-.15-.09-.31-.13-.47-.09-.33-.19-.65-.27-1s.27-.27.36-.09c.28.57.55,1.15.82,1.73,3.27,7,5.89,14.1,8.77,21.16Q261.35,460.9,263.63,466.81Z" style="fill:#37474f"></path><path d="M247.08,189.82c-28.23,17.37-76.57,67.18-74,81.4,4.77,26.22,69.18,51.26,82,57.18,5.44,2.53,19.72-46,13.95-48.82-5-2.46-40.88-12.36-41.24-17.15-.15-2,16.56-26.69,30.06-55.92C268.17,184.12,255.43,184.68,247.08,189.82Z" style="fill:#f7a9a0"></path><path d="M258.09,275.75s5.4,2.41,19.71,4.2c11.18,1.39,36.47,12.46,45,42.94,3.28,11.68-3.49,19.08-9,7.55-3.92-8.12-5.93-14.09-7.95-16.38,0,0-3.05,13.46-10.44,16.53a147.24,147.24,0,0,1-19.86,6.65,31,31,0,0,1-1.58-3.61,16.79,16.79,0,0,1-17.32-4.54l-11.35-4.82Z" style="fill:#f7a9a0"></path><path d="M287,284.16c4,4.31,12.44,13.58,16.68,23.56,4.71,11.08,10.79,33.69,2.57,37.08-6,2.49-9.1-5.94-9.1-5.94s.54,9.88-5.39,10.93c-5.41,1-7.4-5.7-7.4-5.7s-.7,6.05-6.09,6c-6.48-.09-3.94-12.75-10.43-18.51C266.4,330.25,287,284.16,287,284.16Z" style="fill:#f7a9a0"></path><path d="M291.15,310.74c3.14,4.67,7.53,17.11,6.16,27.92,0,.25-.23.36-.25.13a118.38,118.38,0,0,0-6-28C291,310.72,291.12,310.69,291.15,310.74Z" style="fill:#263238"></path><path d="M280.1,315.82c2.29,4.31,6.25,17.33,4.49,28.24,0,.24-.25.34-.26.11A126.7,126.7,0,0,0,280,315.86.05.05,0,0,1,280.1,315.82Z" style="fill:#263238"></path><path d="M258.09,275.75,243.26,328.5s-72.14-33.73-71.2-59.69c.62-17,47.69-62.15,69.2-76.54s27.24-8.72,17.64,15.59-29.61,54.34-29.52,54.94S258.09,275.75,258.09,275.75Z" style="fill:#2563EB"></path><path d="M254.3,274.1l-20.13,56.46s-63-35.79-62.11-61.75c.62-17,47.69-62.15,69.2-76.54s27.24-8.72,17.64,15.59-29.61,54.34-29.52,54.94S254.3,274.1,254.3,274.1Z" style="fill:#455a64"></path><path d="M258.89,207.85c-9.57,24.27-29.51,54.22-29.51,54.94s24.93,11.31,24.93,11.31l-20.14,56.46s-29.78-16.9-48.09-35.88l71.1-110.11C264.88,183.48,265.41,191.39,258.89,207.85Z" style="fill:#263238"></path><path d="M283.28,210.76c-7.6,1-20.69-12.77-24.77-22.47-.28-.67,1.37-7.21,3-15.25,1-4.88,1.94-10.34,2.46-15.39l30.86,11s-4.21,10.26-5.06,19.06a11.22,11.22,0,0,0,0,2.09c0,.1,0,.22,0,.35C290,194.11,290.63,209.81,283.28,210.76Z" style="fill:#f7a9a0"></path><path d="M289.77,189.76c0,.09,0,.22,0,.36a19.93,19.93,0,0,1-3.28-.17c-18.55-2.67-21.27-24-21.62-32l29.95,10.64s-4.2,10.26-5.07,19A13.2,13.2,0,0,0,289.77,189.76Z" style="fill:#263238"></path><path d="M302.59,111.26s8.51,3.83,9.89,12.72-.83,18.11-1.6,18.54S302.59,111.26,302.59,111.26Z" style="fill:#263238"></path><path d="M258.53,120.7c-3.6,11.23,1.89,43.9,9.81,51.28,11.48,10.7,30.51,12,39.65-1.87,8.87-13.43,1-55.88-7.9-62.61C287,97.59,263.86,104.11,258.53,120.7Z" style="fill:#f7a9a0"></path><path d="M269.51,143.16c.94,3.24,3.79,17.85,11.46,20.34,5.72,1.85,13.38-2,13.38-2l3.36.05s5.11,2.7,8.5.43c3.59-2.4,5.78-8.39,5.65-12.43,0,0,3.6,15.21-.53,22.51-5,8.76-22.18,14.74-35.11,8.94s-15.16-24.39-15.16-24.39L268,146.32Z" style="fill:#263238"></path><path d="M290.35,141.17c0-.09-.16.12-.14.21.34,2.21.35,4.79-1.56,5.77-.06,0,0,.14,0,.12C291.09,146.63,291,143.2,290.35,141.17Z" style="fill:#263238"></path><path d="M288.09,139.09c-3.59.17-3,7.35.33,7.2S291.11,139,288.09,139.09Z" style="fill:#263238"></path><path d="M302,139.65c0-.09.18.09.19.18.11,2.23.62,4.76,2.69,5.33.06,0,.07.13,0,.13C302.38,145.15,301.74,141.78,302,139.65Z" style="fill:#263238"></path><path d="M303.78,137.16c3.56-.57,4.43,6.58,1.14,7.11S300.81,137.63,303.78,137.16Z" style="fill:#263238"></path><path d="M284.48,138.33a26.26,26.26,0,0,0,2.95-.23,4.77,4.77,0,0,0,3-.81,1.51,1.51,0,0,0,.23-1.84,3.74,3.74,0,0,0-3.57-1.36,5.53,5.53,0,0,0-3.71,1.5A1.62,1.62,0,0,0,284.48,138.33Z" style="fill:#263238"></path><path d="M305.45,133.51a28.53,28.53,0,0,1-2.91-.5,4.86,4.86,0,0,1-2.88-1.08,1.53,1.53,0,0,1-.06-1.86c.9-1.12,2.33-1.21,3.69-1a5.53,5.53,0,0,1,3.55,1.84A1.62,1.62,0,0,1,305.45,133.51Z" style="fill:#263238"></path><path d="M293.9,160.3c.59.46,1.19,1.12,2,1.1a5.92,5.92,0,0,0,2.32-.82.08.08,0,0,1,.11.1,3,3,0,0,1-2.68,1.51,2.36,2.36,0,0,1-2-1.77C293.65,160.3,293.81,160.23,293.9,160.3Z" style="fill:#263238"></path><path d="M291.77,154.55a7.61,7.61,0,0,0,5.51,2.6,9.61,9.61,0,0,0,2.72-.28,2.53,2.53,0,0,0,.51-.14l.47-.14a.54.54,0,0,0,.37-.56v0a.87.87,0,0,0-.05-.22v0l0-.19c-.2-1.71-.75-4.27-.75-4.27.66.22,4,1.18,3.86.29-1.53-7.28-3.24-15.38-6.3-22.31a.2.2,0,0,0-.39.12c1.19,7.06,3.62,13.86,4.93,20.93a13.39,13.39,0,0,0-3.7-.55c-.24.11,1.15,4.93,1.18,5.71a.45.45,0,0,1,0,.08c-2.8.79-5.08.25-8.13-1.26C291.76,154.22,291.61,154.39,291.77,154.55Z" style="fill:#263238"></path><path d="M300.14,150.73a4.94,4.94,0,0,0-4.74-.24c-1.69.92-3.32,4.24-5.43,4.2a2.17,2.17,0,0,1-1.69-1.15,4.49,4.49,0,0,0,3,3.35c4.93,1.26,8.91-3.93,8.91-3.93s1.37,3.84,5.23,3.84a3.76,3.76,0,0,0,3.6-2.57s-1,1.26-1.93.72c-.62-.35-2.34-4.1-4.29-4.2A19.38,19.38,0,0,0,300.14,150.73Z" style="fill:#263238"></path><path d="M264.73,151.38c3.78.32,5.58-11.22,5.85-15.57.24-3.83-1-15.54-1-16.36s17.64,6.83,26,2.3,12.64-13.84,12-17.61S293.7,93.25,284,94.82s-20.1,16.57-20.1,16.57,3.29-6.22,3.05-6.62-5.92,3.4-6.11,8.07c0,0,0-5.81-.46-5.82s-4.29,5.79-2.43,9.16c0,0-4.54,6-3.92,11.43S260.29,151,264.73,151.38Z" style="fill:#263238"></path><path d="M301.51,118.52c-2.45,1.83-4.87,3.79-7.79,4.83a20.52,20.52,0,0,1-10,.52,30.89,30.89,0,0,1-9.53-3.19c-2.63-1.36-5.09-3.16-7.83-4.28-.68-.29-1.19.72-.71,1.19a33,33,0,0,0,18.79,8.47c6.94.66,12.75-2.1,17.09-7.48A0,0,0,0,0,301.51,118.52Z" style="fill:#263238"></path><path d="M269.61,147.36s-7.42-10.5-12.19-7.84.86,17.9,6.49,20a5.72,5.72,0,0,0,7.63-3.12Z" style="fill:#f7a9a0"></path><path d="M259.14,143.85a.08.08,0,0,0,0,.15c3.95,1.57,6,5.21,7.51,9-1.18-1.45-2.77-2.24-4.72-.83-.1.07,0,.23.11.21a3.5,3.5,0,0,1,3.87,1.2,17,17,0,0,1,1.87,3.12c.19.35.82.16.69-.25l0-.09C268.47,151.32,264.53,144.32,259.14,143.85Z" style="fill:#263238"></path><path d="M330.09,359.23l-138.26,1.34c.3-1.8,25.46-145.5,64.42-176.06,6.88-5.39,27.92,1,34.54,8.12C311.88,215.36,328,340.19,330.09,359.23Z" style="fill:#455a64"></path><path d="M241.65,243.31a122.28,122.28,0,0,1,4.56-19.93c0-.12-.1-.18-.15-.07a104.31,104.31,0,0,0-5.34,16.86c-1.33,5.93-2.15,12-2.94,18s-1.49,12.08-2.46,18.1c-1,6.21-2.33,12.35-3.79,18.46a169.09,169.09,0,0,1-5.75,20c-.06.18.15.28.22.11,2.1-5.8,4.34-11.47,6.09-17.43a181.08,181.08,0,0,0,4.22-17.9C238.54,267.49,239.69,255.33,241.65,243.31Z" style="fill:#263238"></path><path d="M290.79,192.63s21.43,48.4,27.53,140.65c0,0-83.53,6.22-85.55,6.22-2.28,0-36.53-4.77-36.59-4.37-.16,1.05-3.39,11.42-2.59,12.25.35.37,10.19.68,37.79,1.28,35.27.78,90.14,1.83,90.14,1.83L353.17,466.6h14.49s-52.77-232-70.94-264.77C291.83,193,290.79,192.63,290.79,192.63Z" style="fill:#2563EB"></path><path d="M292.67,197.08c-7-1.05-20.62-.54-28.32-1.56-4.69-.61-13.91-8.2-14-8.63s3.83-2.65,4.83-3.08c1.75-.74,11.19,4.73,13.73,5.14,1.39.22,21.45,3,21.83,3.68C293.3,197,292.67,197.08,292.67,197.08Z" style="fill:#2563EB"></path><path d="M231.24,342s-22.13,9.76-23,17.55,11.41,19.26,15.76,17.76,12.79-32.24,12.79-32.24Z" style="fill:#2563EB"></path><path d="M232.77,342.83s-17.71,12.57-17.07,18.84S226,355.85,232.77,342.83Z" style="opacity:0.1"></path><path d="M230,347.12s-2,24.12,4.43,28.6,22.37-.82,23.13-5.37-22.23-26.62-22.23-26.62Z" style="fill:#2563EB"></path><path d="M231.42,346.19s2.59,21.56,8.41,24S239.61,358.39,231.42,346.19Z" style="opacity:0.1"></path><path d="M416.69,231.64s-7,.88-10.82,6.64C402.81,243,404.58,250.73,403,251s-5.87-9.6-1.7-16.38c3.68-6,11.5-7.92,11.5-7.92l17-30.45-6.17-3.81,27.55-51.66,9.63,4.71s3.08.33,3.21,2.46-9.83,20.72-18.87,35.8S417.71,230.62,416.69,231.64Z" style="fill:#c7c7c7"></path><path d="M434,195.16c8.29-16,17-31.91,26.18-47.48-8.3,16-17.05,31.92-26.18,47.48Z" style="fill:#a6a6a6"></path><path d="M395,136.36c-3.57,10.46-4.28,30.94-1.69,49,3.23,22.48,9.35,39.55,17.44,44.81,6.14,4,11.4-1.78,9.62-10.18-1.66-7.86-6.48-19.87-9.16-35.7-2.6-15.4,1.18-42.06-1.64-49.92S397.66,128.54,395,136.36Z" style="fill:#2563EB"></path><path d="M405.46,136a2.53,2.53,0,1,1-2.94-2.06A2.55,2.55,0,0,1,405.46,136Z" style="fill:#c7c7c7"></path><path d="M405.46,136a2.05,2.05,0,0,1,0,.49l-4.89.86a2.33,2.33,0,0,1-.14-.47,2.05,2.05,0,0,1,0-.49l4.89-.86A1.72,1.72,0,0,1,405.46,136Z" style="fill:#a6a6a6"></path><path d="M415.2,222.26a2.53,2.53,0,1,1-3.37,1.24A2.54,2.54,0,0,1,415.2,222.26Z" style="fill:#c7c7c7"></path><path d="M415.2,222.27a2.86,2.86,0,0,1,.42.24L413.53,227a2.8,2.8,0,0,1-.46-.16,1.73,1.73,0,0,1-.42-.25l2.08-4.51A1.74,1.74,0,0,1,415.2,222.27Z" style="fill:#a6a6a6"></path><path d="M395,154.62c.08,23.06,3.26,46.35,11.81,67.87C396.53,202.22,393,177.13,395,154.62Z" style="opacity:0.30000000000000004"></path><path d="M396.76,140.91a80.94,80.94,0,0,1-1.55,10.51,25.59,25.59,0,0,1,1.55-10.51Z" style="opacity:0.30000000000000004"></path><path d="M278.75,211.5c2,50.48,19.55,118.28,36.43,122.69,18.8,4.91,16.66-64,14.38-65.9-1.72-1.42-17.1-30.61-32.49-63.08S278.25,199,278.75,211.5Z" style="fill:#f7a9a0"></path><path d="M329.82,268.08c-2.55-4.46-24.34-48.23-33.7-66.26s-18-17.51-18.37,8.58,5.76,79.47,21.88,107.78c15.52,27.28,27.52,18.7,31.35-5.61C334.12,292.67,329.82,268.08,329.82,268.08Z" style="fill:#455a64"></path><path d="M315,334.8c14.34,1.85,29.93-11.2,75.95-45.37,6.36-4.73-14.43-60.54-21.49-55.84-8.89,5.92-42.12,30.83-44.32,33C306.57,284.49,305.25,333.54,315,334.8Z" style="fill:#f7a9a0"></path><path d="M345.11,261.37s4.55-5.36,11.36-21.09c5.32-12.29,26.39-37.46,64-37,14.42.16,20.61,10.35,5.6,12.84-10.58,1.76-18,2.07-21.34,3.61,0,0,14.33,8,15.38,17.42a176.49,176.49,0,0,1,1,24.88,35.94,35.94,0,0,1-4.64.6,20,20,0,0,1-11,18.26L388,291.57Z" style="fill:#f7a9a0"></path><path d="M364.36,231.19C370.62,228,384,221.51,396.8,220c14.21-1.67,42.05-1.07,43.18,9.44.82,7.7-9.82,8.4-9.82,8.4s11.45,2.68,10.68,9.8c-.71,6.49-9,6.54-9,6.54s6.67,2.82,4.79,8.94c-2.27,7.36-15.87.25-24.61,5.72C410.08,270.07,364.36,231.19,364.36,231.19Z" style="fill:#f7a9a0"></path><path d="M396.06,235.32c6.38-2,22-2.88,33.92,2.28.27.12.33.38.06.33a140.7,140.7,0,0,0-34-2.48C396,235.46,396,235.34,396.06,235.32Z" style="fill:#263238"></path><path d="M398.17,249.62c5.69-1.18,21.87-1.35,33.73,4.3.26.13.3.4,0,.33a151.09,151.09,0,0,0-33.75-4.5A.07.07,0,0,1,398.17,249.62Z" style="fill:#263238"></path><path d="M349.37,244.11l22.4,67.11S329,338.47,314.59,335.29c-9.47-2.09-9.7-52.19,12.31-70.47Z" style="fill:#455a64"></path><path d="M310.75,295.82c.63-5.61,3.58-20.31,16.15-31.05.11-.1.28.06.18.16-8.58,8.91-15,25.6-16.1,30.95C311,296,310.74,296,310.75,295.82Z" style="fill:#263238"></path><path d="M355.83,315.84c-2.78-7.15-5.16-14.43-7.53-21.71s-4.75-14.58-6.93-21.92c-1.24-4.15-2.5-8.29-3.58-12.47a.1.1,0,0,1,.19-.07c2.77,7.14,5.19,14.42,7.6,21.68s4.76,14.58,7,21.89c1.28,4.14,2.49,8.29,3.58,12.48C356.24,315.92,355.91,316.05,355.83,315.84Z" style="fill:#263238"></path><path d="M349.5,243.5c-2.76,1.56-14.83,11.16-27.52,26.2-.09.1-1.3,3.7-1.22,3.6,10.17-12.3,26.44-26.38,28.78-28.61a4.5,4.5,0,0,0,.25.7.19.19,0,0,0,.36,0c.07-.47,0-.91.05-1.4A.46.46,0,0,0,349.5,243.5Z" style="fill:#263238"></path><path d="M370.21,306.53l1.67,4.65,0,.09-.07.05c-12.49,8.27-25.48,15.9-39.55,21.22-5.34,1.86-11.08,3.67-16.86,2.82-9.3-2.09-15-12.79-18.93-20.6-6.34-13.66-10.45-28.18-13.67-42.83a273.35,273.35,0,0,1-6.12-44.44,335.93,335.93,0,0,0,7.6,44.1c3.54,14.46,7.58,28.92,14,42.31,3.75,7.35,8.88,17.59,17.46,19.69,5.39.84,10.85-.93,16-2.57,14-4.94,27.2-12.28,40-19.9l0,.14-1.45-4.73Z" style="fill:#263238"></path><path d="M275.27,229.23a16.73,16.73,0,0,0,2.23,7.44,11,11,0,0,1-2.23-7.44Z" style="fill:#263238"></path></g><g id="freepik--character-1--inject-80"><path d="M228.33,301.48h0a1.66,1.66,0,0,1-.05.17c-.06.18-.15.51-.26,1,0,.15-.08.31-.12.49a.32.32,0,0,0,0,.09c0,.13-.08.26-.11.41s-.07.29-.12.45-.17.63-.26,1-.15.56-.23.86-.21.81-.31,1.26c-.09.27-.16.57-.24.87s-.1.39-.16.6c-.09.38-.2.79-.31,1.21-.06.24-.13.5-.19.76s-.14.5-.2.76-.14.54-.21.81-.14.56-.22.83l-.72,2.76-.21.83c-.09.32-.18.65-.26,1s-.11.43-.16.64a.84.84,0,0,0-.05.17c-.29,1.08-.58,2.21-.89,3.37-.36,1.41-.74,2.89-1.15,4.44-.35,1.38-.73,2.82-1.12,4.3-.24.92-.48,1.84-.72,2.78-.12.47-.25.95-.37,1.43l-.07.22c-.44,1.76-.92,3.58-1.41,5.44-.26,1-.51,2-.78,3-.12.43-.22.86-.33,1.28,0,.23-.11.46-.17.68s-.11.37-.15.56c-.53,2-1.08,4.11-1.62,6.22-.39,1.53-.8,3.09-1.21,4.66-1.2,4.64-2.45,9.47-3.74,14.43-6.78,26.2-14.58,56.31-21.65,83.85-.25.93-.47,1.86-.72,2.79a2.17,2.17,0,0,0-.08.3c0,.17-.1.34-.14.51-.12.48-.23.94-.35,1.41s-.2.81-.3,1.21-.23.9-.35,1.35c-.19.71-.37,1.43-.55,2.13s-.31,1.22-.47,1.83H97.93c8.95-31.15,19.66-66.7,28.88-96.8,11.8-38.63,21.16-68.32,21.16-68.32Z" style="fill:#37474f"></path><path d="M172.05,466.6c13.46-55.17,28.34-110.63,44.38-165.11C203,356.67,188.09,412.12,172.05,466.6Z" style="fill:#263238"></path><path d="M228.33,301.49a1.66,1.66,0,0,1-.05.17c-.05.18-.13.51-.26,1,0,.15-.08.31-.12.49l-.14.5q0,.21-.12.45c-.21.85-.49,1.88-.8,3.12-.09.27-.16.57-.24.87s-.1.39-.16.6c-.09.39-.2.79-.31,1.21-.06.24-.13.5-.19.76s-.14.51-.2.76-.14.54-.21.81-.15.56-.22.83l-.72,2.76c-.15.59-.31,1.19-.47,1.81-.08.27-.14.53-.21.81-.29,1.08-.58,2.21-.89,3.37-.36,1.41-.75,2.89-1.15,4.44-.36,1.38-.73,2.82-1.12,4.3-.24.92-.48,1.84-.72,2.78-.13.47-.26.95-.37,1.43l-.07.22c-.45,1.76-.92,3.58-1.41,5.44-.26,1-.51,2-.78,3-.12.43-.22.86-.33,1.28s-.21.82-.32,1.24c-.53,2-1.08,4.11-1.62,6.22-.4,1.53-.81,3.09-1.21,4.66-7.81,30-17.6,67.8-26.19,101.37,0,.17-.09.34-.14.51-.12.48-.23.94-.35,1.41-.41,1.58-.81,3.13-1.2,4.69-.16.61-.31,1.22-.47,1.83h-3.35c-1.13-7.64-2.44-15.46-3.88-23.38-3.91-21.5-8.75-43.69-13.38-64.84-.13-.54-.24-1.09-.36-1.63-.08-.33-.14-.66-.21-1-3.82-17.38-7.46-34-10.29-48.86,0,0,0-.1,0-.14q-1.14-5.92-2.08-11.46c-.1-.56-.19-1.14-.29-1.69-.7-4.23-1.31-8.27-1.8-12.08a.08.08,0,0,1,0,0Z" style="opacity:0.1"></path><path d="M272.62,466.6H183.3l-2.83-31.28-4.77-52.49-.09-.95c-3.44-1.58-8.43-3.93-11-5.13l-1.68-.79s-.07-.3-.16-.83c-.92-4.85-5.64-30-8.66-48.23,0,0,0-.1,0-.14v0c-.74-4.43-1.42-8.6-2-12.22-.07-.51-.16-1-.23-1.49-1-5.86-1.66-10-1.87-11.21,0-.14,0-.23,0-.28a.08.08,0,0,1,0,0h104s10.12,44,11,58.95c.27,4.8-1.3,19.19-1.3,19.19Z" style="fill:#37474f"></path><path d="M155.85,372.7c11.59,3.74,22.81,9.15,33.55,14.84a.37.37,0,0,1-.29.69c-11.3-4.59-22.81-9-33.84-14.18A.74.74,0,0,1,155.85,372.7Z" style="fill:#263238"></path><path d="M243.61,351.14c-1-.42-19-.38-26.93-8.41-7.3-7.35-9.55-28-9.71-28.07a.28.28,0,0,0-.31.12c-.28.43-1,16.59,7.46,28.53,6,8.41,27.17,8.89,29.48,8.52C244,351.77,243.9,351.26,243.61,351.14Z" style="fill:#263238"></path><path d="M137.84,342c.85-.69,4.91-1.31,8.86-9a41.72,41.72,0,0,0,3.33-9.59c.45-2,1.93-11.63,2.05-11.68s.09,0,.12.13c.14.67-.78,9.5-1.18,11.76-.76,4.26-1.76,8.16-3.4,11.06-3.8,6.71-8.93,8.43-9.81,8C137.65,342.56,137.72,342.1,137.84,342Z" style="fill:#263238"></path><path d="M161.28,312.67c.05-.29.57-.3.54,0a282,282,0,0,0-1.24,28.38c0,4.39,1.22,28.79,8.94,27.74,1.29-.17,2-1.35,2.43-3.24.45-2.27-.14-5.16-.31-7.48-.36-5.11-.56-10.23-.51-15.36a137.88,137.88,0,0,1,3-28.44.24.24,0,0,1,.48.07c-1.24,13.15-2.13,26.31-1.39,39.52.35,6.35,2.62,16.07-4,16.42s-9.59-15.84-10-20.23C158.05,337.79,159.18,324.78,161.28,312.67Z" style="fill:#263238"></path><path d="M169.26,369.43a41.47,41.47,0,0,1,1.23,5.15,11.33,11.33,0,0,1,.32,4.17c-.06.26-.41.25-.54.06a14.59,14.59,0,0,1-1.38-4.15c-.42-1.6-.89-3.19-1.27-4.8A.85.85,0,0,1,169.26,369.43Z" style="fill:#263238"></path><path d="M246.2,305.31c3.38,18.06,6.94,36.41,9.22,54.66,0,7.22,0,14.47.14,21.72,2.59,26.94,5.25,57.83,6.94,85.12-2.46-19.54-5-44-6.86-63.75-.54-5.3-1.54-16-2-21.28,0-6.45-.09-12.88,0-19.36.2-2.76-.51-6.67-.8-9.44-.79-6.35-5.7-40.63-6.69-47.67Z" style="fill:#263238"></path><path d="M192.06,206.53C169.5,230.31,130.35,271,112.37,269c-13-1.49-51.56-40.52-61.41-55C41.46,200,85.9,178.27,92,186.12c11,14.09,24.64,28.92,26,30.3,1,1.06,25.21-9.74,59.76-25.24C199.54,181.41,201.66,196.42,192.06,206.53Z" style="fill:#ad6359"></path><path d="M132.6,210.15l15.32,46.29S173.1,231.89,189,212.19s18.46-35.65-5.7-25.7S132.6,210.15,132.6,210.15Z" style="fill:#2563EB"></path><polygon points="201.63 182.13 200.4 181.6 201.99 181.87 201.63 182.13" style="fill:#c7c7c7"></polygon><path d="M189,212.19c-15.89,19.71-41.06,44.25-41.06,44.25l-10.16-30.69,60.89-41.6C204.46,187.08,199.82,198.76,189,212.19Z" style="opacity:0.1"></path><path d="M142.44,208.5c1.37,3.23,2.38,6.64,3.46,10S148,225,149,228.32c2.05,6.66,4.14,13.3,5.67,20.1a.15.15,0,0,1-.28.09c-2.54-6.49-4.52-13.16-6.55-19.83q-1.51-4.94-3-9.89c-1-3.37-2-6.76-2.73-10.21A.15.15,0,0,1,142.44,208.5Z" style="fill:#263238"></path><path d="M42.57,200.26c3.55,9.08,18.07,24.81,23,27.25s32.52-21.34,32.21-27S83.2,165.19,74.58,160.23,38.9,190.86,42.57,200.26Z" style="fill:#ad6359"></path><path d="M96.26,195s-.05-12.68,3.63-23.22c3.09-8.87,8.69-21.68,4-23.53-9.66-3.78-23.6,28.19-23.6,28.19s-3.89,15.09,5.35,19.69C91.41,199,96.26,195,96.26,195Z" style="fill:#ad6359"></path><path d="M86.3,170.53c-3.25,4-6.37,1.14-6.37,1.14L56.4,155.18S42,138.05,46,133.75c7-7.41,37.08,28.14,40.24,30.83C88,166,87.71,168.78,86.3,170.53Z" style="fill:#ad6359"></path><path d="M74,195.16c2.54-1.48,4.94-3.44,5.51-7.28.41-.6,1.07-.37,1.21-.69a8.77,8.77,0,0,0-.42-3.85c-.28-.35-1.15-.05-1.3-.41-2.07-5-6.41-7.34-7.17-8.13-.91-1-1.45-6.71-1.11-10.83S74,154.59,76,152.8c0,0-4.86-33.5-16.1-55.31l-1.11.14,9.6,60.71a35.7,35.7,0,0,0-1,14.56c.07.59,0,.9-.72,1.63s-7.5,4.49-6.19,12.55S69.66,197.69,74,195.16Zm-9.19-14.77a6.52,6.52,0,0,1,10,.66c2.73,3.3,2.81,7.24.27,9.88-3.48,3.59-7.87,2-10-.24C62.83,188.27,61.91,183.27,64.84,180.39Z" style="fill:#37474f"></path><path d="M72.63,157.71l-5.42-6.54-3.37-21.32,10.08,11.62c1.39,6.81,2,11.33,2,11.33A17.13,17.13,0,0,0,72.63,157.71Z" style="fill:#263238"></path><path d="M59.93,98.81c1,2.07,1.88,4.19,2.75,6.31s1.66,4.29,2.43,6.45q2.31,6.5,4.13,13.15c1.19,4.44,2.3,8.91,3.17,13.42.21,1.13.46,2.25.64,3.38l.57,3.4c.19,1.13.33,2.27.48,3.41l.45,3.42c-.75-4.53-1.51-9.06-2.5-13.54s-2-8.94-3.26-13.36-2.56-8.81-4-13.16S61.72,103,59.93,98.81Z" style="fill:#455a64"></path><path d="M83.43,159.05c3.22,2.59,7,6.94,7.1,8.26s-2,8.45,2.45,13.08a11,11,0,0,0,11.27,3c3.36-.94,3.82.62,5.51,2a12.84,12.84,0,0,0,8.12,2.42c3-.25,3.26-3.21-.24-3.07a7.85,7.85,0,0,1-7.26-3.28c-1.9-2.3,2.07-7.79-3.06-14S95,163.27,93.94,163.31s-1.29-.15-1.67-.61A35.72,35.72,0,0,0,81,153.44L43.53,104.71l-.86.72c8.1,23.16,29.07,49.73,29.07,49.73C74.42,154.94,80.21,156.46,83.43,159.05ZM95,168.29a6.53,6.53,0,0,1,10,.66c2.73,3.3,2.82,7.25.27,9.88-3.48,3.6-7.86,2-9.94-.24C93,176.18,92.07,171.17,95,168.29Z" style="fill:#455a64"></path><path d="M71.75,147.22a1.74,1.74,0,1,0-2.32.82A1.74,1.74,0,0,0,71.75,147.22Z" style="fill:#c7c7c7"></path><path d="M71.29,147a1.23,1.23,0,1,0-1.64.58A1.23,1.23,0,0,0,71.29,147Z" style="fill:#ebebeb"></path><path d="M43.49,105.68c1,2.13,2,4.25,3,6.34s2.08,4.19,3.16,6.27c2.16,4.15,4.4,8.25,6.77,12.29,1.15,2,2.38,4,3.58,6s2.47,4,3.76,5.91l1.93,2.94,2,2.88,1,1.45,1,1.42,2,2.85c-2.89-3.68-5.7-7.43-8.29-11.34l-1-1.45-.95-1.47-1.89-3c-1.21-2-2.46-4-3.62-6-2.34-4.06-4.59-8.17-6.68-12.36S45.25,110,43.49,105.68Z" style="fill:#263238"></path><path d="M104.73,182.61a11.1,11.1,0,0,1-5.85.64,9.81,9.81,0,0,1-8-8,17.66,17.66,0,0,1,0-6c.06-.48.18-1,.19-1.43a3.12,3.12,0,0,0-.36-1.32,12.68,12.68,0,0,0-1.6-2.42A38.89,38.89,0,0,0,85,159.9a19.86,19.86,0,0,0-4.88-3.27,16.69,16.69,0,0,0-5.6-1.79,12.11,12.11,0,0,1,2.92.53,21.16,21.16,0,0,1,2.78,1,20,20,0,0,1,5,3.2,37.2,37.2,0,0,1,4.19,4.23,13.34,13.34,0,0,1,1.68,2.5,3.69,3.69,0,0,1,.41,1.52c0,.56-.14,1-.2,1.5a17.29,17.29,0,0,0,0,5.83A9.64,9.64,0,0,0,98.92,183,11.38,11.38,0,0,0,104.73,182.61Z" style="fill:#263238"></path><path d="M79.93,171.67s6.53,7.59,3.59,12.48c-2.84,4.71-9.3-.29-9.77-.64.34.4,6.16,7.53,2.71,12.15-3.6,4.79-9.23-1.35-9.59-1.75.2.49,2.78,6.92-.64,9.83-5.89,5-12.94-11.28-18.84-13.33,0,0-4.62,9.6-4.82,9.85,0,0-7-15.35-3.8-23.16a5.39,5.39,0,0,1,5.86-3.35s-2.81-4.69-.2-8.41c1.34-1.91,5.58-1.46,5.58-1.46s-2.09-3.85.43-7a5.5,5.5,0,0,1,6-1.85C65.65,157,79.93,171.67,79.93,171.67Z" style="fill:#ad6359"></path><path d="M57,155.22c-.08-.05,0-.17.05-.14,8.88,3,17.71,9.07,23.15,16.77.18.25.22,1.69,0,1.42C74.8,166.51,65.83,159.87,57,155.22Z" style="fill:#263238"></path><path d="M49.93,163.76c-.1,0,0-.21.09-.17,9.13,3.17,18.89,10.24,24.12,19.86.18.33,0,.81-.23.44C70,177.76,57.86,167.91,49.93,163.76Z" style="fill:#263238"></path><path d="M67,194.71c-5.37-9-13.1-15.42-22-20.85-.12-.07,0-.23.11-.19,5.06,1.47,10.37,5.52,14.22,9a27.67,27.67,0,0,1,8,11.83C67.38,194.7,67.12,194.9,67,194.71Z" style="fill:#263238"></path><path d="M80.1,171.67c.21.3-.93.24-.73.55,2.2,3.39,5.83,9.64,3.49,12.05-1.89,1.93-5.79.73-7.11-.32l-3.31-2.63L74.63,185a17.31,17.31,0,0,1,2.14,5.19,6.18,6.18,0,0,1-.7,5,3.52,3.52,0,0,1-4.22,1.41,10.65,10.65,0,0,1-4.33-3.17l-3.3-3.78,1.88,4.63a16.21,16.21,0,0,1,1.06,4,6.73,6.73,0,0,1-.47,3.84,3.2,3.2,0,0,1-2.85,1.77,7,7,0,0,1-3.59-1.64A55.69,55.69,0,0,1,54,196.14C53,195.06,52,194,51,193a10.39,10.39,0,0,0-3.59-2.55,11.15,11.15,0,0,1,3.29,2.83c1,1.09,1.88,2.24,2.8,3.38a47.07,47.07,0,0,0,6,6.56,8.25,8.25,0,0,0,4.23,2.11A4.54,4.54,0,0,0,68,202.83a8.21,8.21,0,0,0,.72-4.75,17.91,17.91,0,0,0-1.12-4.49l-1.42.85a12.24,12.24,0,0,0,5.07,3.8,5.16,5.16,0,0,0,3.47,0,5.71,5.71,0,0,0,2.69-2.13,7.78,7.78,0,0,0,.89-6.35,19.05,19.05,0,0,0-2.44-5.67l-1.12,1c1.72,1.28,5.93,3.09,9.24.47C87.81,181.52,81.38,173.12,80.1,171.67Z" style="fill:#263238"></path><path d="M135.45,337.5l126.49-.45c.29-.3-24.57-119.61-42.56-143.49-9-12-33.3-11.11-42.4,4.35C164.41,219.25,135.45,337.5,135.45,337.5Z" style="fill:#2563EB"></path><path d="M235.29,205.2c31.46,43.18,65.9,103.64,54.81,118.39-12.35,16.42-52.83-24.06-54-27-1.29-3.24-15.65-43.6-21.54-81.15C208.12,174.3,227.51,194.53,235.29,205.2Z" style="fill:#ad6359"></path><path d="M222.3,258.67l47.64-5.33s-18.49-29.2-34.21-48.49-30.53-25-25.88.25S222.3,258.67,222.3,258.67Z" style="fill:#2563EB"></path><path d="M222.18,249.8c3.37-.77,6.84-1.15,10.26-1.62s6.71-.88,10.06-1.29c6.8-.83,13.59-1.71,20.43-2a.15.15,0,0,1,0,.29c-6.72,1.33-13.52,2.09-20.32,2.91q-5,.6-10.09,1.13c-3.43.37-6.89.82-10.34.87A.14.14,0,0,1,222.18,249.8Z" style="fill:#263238"></path><path d="M213.41,221.86c0-.08-.18-.05-.17,0,.59,3.71,1.4,7.39,2.27,11.05-.77-1.61-1.54-3.23-2.37-4.83,0-.09-.27,0-.23.07a32.08,32.08,0,0,0,1.5,3.54c.47.94,1,1.87,1.47,2.8.47,1.93,5.67,23.1,6.1,24.2.06.15.36.1.32-.05C221.87,257,217.6,234.14,213.41,221.86Z" style="fill:#263238"></path><path d="M242.35,466.81H96.58c4.88-19.64,65.68-233.76,66.5-233.6,1,.21,37.31.83,40.87,1.66,1.36.32,19.08,55.36,19.42,59.82.21,2.79,32.68,12.81,33.32,13.14s1.54,5.51,1.54,5.51-28.2.89-29.69,1C227.34,314.44,239.47,423.27,242.35,466.81Z" style="fill:#263238"></path><path d="M161.75,238.74S175,194.82,176.6,191.66a23.24,23.24,0,0,1,5.15-6.16l-15.27,53.43Z" style="fill:#2563EB"></path><path d="M161.75,238.74S175,194.82,176.6,191.66a23.24,23.24,0,0,1,5.15-6.16l-15.27,53.43Z" style="opacity:0.30000000000000004"></path><path d="M166.09,236.59a1.28,1.28,0,1,1-2.48-.46,1.28,1.28,0,1,1,2.48.46Z" style="fill:#263238"></path><path d="M195.53,240.13l7,.56s7.38-31.09,8.77-37.93,6.92-15.39,6.92-15.39a7.64,7.64,0,0,0-4.95-2.62s-8.19,12.9-10.09,21.35C201.56,213.51,195.53,240.13,195.53,240.13Z" style="fill:#2563EB"></path><path d="M195.53,240.13l7,.56s7.38-31.09,8.77-37.93,6.92-15.39,6.92-15.39a7.64,7.64,0,0,0-4.95-2.62s-8.19,12.9-10.09,21.35C201.56,213.51,195.53,240.13,195.53,240.13Z" style="opacity:0.30000000000000004"></path><path d="M201.48,237.23a1.7,1.7,0,1,1-1.69-1.7A1.7,1.7,0,0,1,201.48,237.23Z" style="fill:#263238"></path><rect x="178.41" y="323.23" width="21.27" height="11.32" transform="translate(386.44 652.83) rotate(178.53)" style="fill:#455a64"></rect><polygon points="177.96 334.83 178.1 340.24 186.3 348.19 192.77 348.03 200.56 339.67 200.42 334.25 177.96 334.83" style="fill:#dbdbdb"></polygon><polygon points="189.45 401.17 192.34 401.1 192.77 348.03 186.3 348.19 189.45 401.17" style="fill:#dbdbdb"></polygon><polygon points="156.81 321.81 173.19 319.73 172.82 317.53 156.71 321.19 156.81 321.81" style="fill:#2563EB"></polygon><polygon points="157.19 324 173.57 321.93 173.19 319.73 157.08 323.38 157.19 324" style="fill:#2563EB"></polygon><polygon points="157.57 326.2 173.94 324.12 173.57 321.93 157.46 325.58 157.57 326.2" style="fill:#2563EB"></polygon><polygon points="157.94 328.4 174.32 326.32 173.94 324.12 157.84 327.78 157.94 328.4" style="fill:#2563EB"></polygon><polygon points="158.32 330.59 174.7 328.52 174.32 326.32 158.21 329.97 158.32 330.59" style="fill:#2563EB"></polygon><polygon points="158.7 332.79 175.07 330.71 174.7 328.52 158.59 332.17 158.7 332.79" style="fill:#2563EB"></polygon><polygon points="159.07 334.99 175.45 332.91 175.07 330.71 158.97 334.37 159.07 334.99" style="fill:#2563EB"></polygon><polygon points="159.45 337.19 175.83 335.11 175.45 332.91 159.34 336.56 159.45 337.19" style="fill:#2563EB"></polygon><polygon points="159.83 339.38 176.2 337.31 175.83 335.11 159.72 338.76 159.83 339.38" style="fill:#2563EB"></polygon><polygon points="160.2 341.58 176.58 339.5 176.2 337.31 160.1 340.96 160.2 341.58" style="fill:#2563EB"></polygon><polygon points="160.58 343.78 176.96 341.7 176.58 339.5 160.47 343.16 160.58 343.78" style="fill:#2563EB"></polygon><polygon points="160.96 345.97 177.33 343.9 176.96 341.7 160.85 345.35 160.96 345.97" style="fill:#2563EB"></polygon><polygon points="161.33 348.17 177.71 346.1 177.33 343.9 161.23 347.55 161.33 348.17" style="fill:#2563EB"></polygon><polygon points="161.71 350.37 178.09 348.29 177.71 346.1 161.6 349.75 161.71 350.37" style="fill:#2563EB"></polygon><polygon points="162.09 352.56 178.46 350.49 178.09 348.29 161.98 351.94 162.09 352.56" style="fill:#2563EB"></polygon><polygon points="162.46 354.76 178.84 352.69 178.46 350.49 162.35 354.14 162.46 354.76" style="fill:#2563EB"></polygon><polygon points="162.84 356.96 179.22 354.88 178.84 352.69 162.73 356.34 162.84 356.96" style="fill:#2563EB"></polygon><polygon points="163.21 359.16 179.59 357.08 179.22 354.88 163.11 358.54 163.21 359.16" style="fill:#2563EB"></polygon><polygon points="184.1 395.22 186.88 394.75 175.65 317.05 170.85 317.87 184.1 395.22" style="fill:#2563EB"></polygon><rect x="199.93" y="321.23" width="21.27" height="11.32" transform="translate(371.72 680.76) rotate(-171.7)" style="fill:#455a64"></rect><polygon points="198.63 330.86 197.85 336.22 204.59 345.45 210.99 346.38 220.08 339.47 220.86 334.11 198.63 330.86" style="fill:#2563EB"></polygon><polygon points="198.7 398.19 201.56 398.61 210.99 346.38 204.59 345.45 198.7 398.19" style="fill:#2563EB"></polygon><path d="M219,359.84s-20.89,4.68-48.53.07c0,0-2.06,38.36-.89,40.53s17.24,8.24,23.09,8.81,24.65-4.46,27.37-7.74S219,359.84,219,359.84Z" style="fill:#263238"></path><path d="M219,359.84a133.85,133.85,0,0,1-36.46,1.88c-4.07-.28-8.11-.82-12.14-1.42l.47-.37c-.49,13.08-1.49,26.2-1,39.27a4.76,4.76,0,0,0,.15.92,3.77,3.77,0,0,0,1.36,1.14A80,80,0,0,0,187,407.52c2.72.76,5.44,1.55,8.2,1.25a79.2,79.2,0,0,0,16.49-3.65,28.65,28.65,0,0,0,7.6-3.42,2.29,2.29,0,0,0,.9-1.6c1.11-7.68.25-15.54,0-23.28q-.46-8.49-1.19-17Zm0,0q.9,8.48,1.55,17c.45,7.78,1.38,15.68.34,23.46a3.07,3.07,0,0,1-1.12,2c-2.36,1.78-5.1,2.66-7.81,3.65s-5.45,1.68-8.23,2.33c-4.15.85-8.53,2-12.8,1.22a79.85,79.85,0,0,1-12.28-3.76,43.14,43.14,0,0,1-8.74-4.21,2.35,2.35,0,0,1-.83-1,5.19,5.19,0,0,1-.2-1.18c-.15-1.79-.14-3.59-.14-5.37.14-11.36.71-22.7,1.33-34l0-.44.43.07c16,2.61,32.47,3.11,48.47.32Z" style="fill:#37474f"></path><path d="M183.94,204.89c6.79,3.93,20.53-5.14,26.08-14,.38-.61.92-25.56,1.21-30.59.07-1-32,5.82-32,5.82s2.49,10.72,1.92,19.49a11.69,11.69,0,0,1-.34,2c0,.1-.05.21-.07.34C179.88,191.89,180.46,202.88,183.94,204.89Z" style="fill:#ad6359"></path><path d="M180.74,188a19.81,19.81,0,0,0,3.24.36c16.57.61,23.7-19.3,26-28.11-5.83.53-30.8,5.86-30.8,5.86s2.5,10.73,1.92,19.51a10,10,0,0,1-.33,2C180.8,187.75,180.75,187.87,180.74,188Z" style="fill:#263238"></path><path d="M218.76,124.53c2.44,11.46-6.23,43.21-14.79,49.72-12.41,9.43-31.34,8.81-39-5.79-7.44-14.16,4.6-55.33,14-61.11C192.88,98.85,215.14,107.6,218.76,124.53Z" style="fill:#ad6359"></path><path d="M189.3,142c0-.07.15.15.12.24-.6,2.13-.94,4.68.83,5.87.06,0,0,.15-.05.12C187.91,147.29,188.39,143.92,189.3,142Z" style="fill:#263238"></path><path d="M191.79,140.23c3.52.6,2.06,7.6-1.21,7.05S188.83,139.72,191.79,140.23Z" style="fill:#263238"></path><path d="M176.44,139.59c0-.09-.2.07-.21.16-.39,2.18-1.19,4.62-3.31,4.93-.06,0-.08.12,0,.13C175.38,145,176.42,141.72,176.44,139.59Z" style="fill:#263238"></path><path d="M175,136.92c-3.43-1-5.17,6-2,6.87S177.85,137.75,175,136.92Z" style="fill:#263238"></path><path d="M196,137.48a26.71,26.71,0,0,1-2.78-.94,4.74,4.74,0,0,1-2.66-1.5,1.53,1.53,0,0,1,.22-1.84,3.76,3.76,0,0,1,3.78-.43,5.54,5.54,0,0,1,3.21,2.35A1.61,1.61,0,0,1,196,137.48Z" style="fill:#263238"></path><path d="M173.15,133.2a26.29,26.29,0,0,0,2.94-.13,4.75,4.75,0,0,0,3-.7,1.52,1.52,0,0,0,.3-1.82,3.76,3.76,0,0,0-3.51-1.47,5.47,5.47,0,0,0-3.73,1.36A1.61,1.61,0,0,0,173.15,133.2Z" style="fill:#263238"></path><path d="M186.38,162.71c-.63.39-1.29,1-2.1.89a6,6,0,0,1-2.21-1c-.07,0-.15,0-.12.09a3,3,0,0,0,2.51,1.75,2.34,2.34,0,0,0,2.1-1.56C186.62,162.73,186.47,162.65,186.38,162.71Z" style="fill:#263238"></path><path d="M185.05,155.42a7.51,7.51,0,0,1-5.61,2.26,9.22,9.22,0,0,1-2.69-.43,3.52,3.52,0,0,1-.49-.16l-.46-.18a.55.55,0,0,1-.34-.57v0a1.8,1.8,0,0,1,.06-.22h0l0-.19c.3-1.68,1-4.19,1-4.19-.68.18-4.08.93-3.85.07,1.94-7.14,4.09-15.08,7.53-21.77a.21.21,0,0,1,.39.14c-1.6,6.93-4.4,13.54-6.11,20.48a13.22,13.22,0,0,1,3.71-.33c.22.11-1.42,4.82-1.5,5.58a.21.21,0,0,0,0,.09c2.73.94,5,.53,8.14-.78C185.08,155.1,185.22,155.28,185.05,155.42Z" style="fill:#263238"></path><path d="M178.08,157.23a9,9,0,0,0,3.29,3.19,4,4,0,0,0,2.44.42c1.83-.27,2.06-1.9,1.88-3.33a9.94,9.94,0,0,0-.56-2.23A11.69,11.69,0,0,1,178.08,157.23Z" style="fill:#263238"></path><path d="M181.37,160.42a4,4,0,0,0,2.44.42c1.83-.27,2.06-1.9,1.88-3.33C183.77,157.5,181.74,158.58,181.37,160.42Z" style="fill:#ff98b9"></path><path d="M192.44,158a10.87,10.87,0,0,0-6.64-5.52,16.83,16.83,0,0,0-9.79-.61c-4.3,1.08-5.57,3.74-6.21,8.63s-.24,12.52,1.26,14.42,8,5.83,13.1,5.85,9.78-2.07,11.29-3.28C197.82,175.58,193.82,160.82,192.44,158Zm-4.11,8.15a12.23,12.23,0,0,1-6.14,1.28c-2.81,0-6.55-1.07-7.4-2.06s-1.08-5.72-.77-8.23,1-3.9,3.36-4.42a9.92,9.92,0,0,1,5.41.4,6.17,6.17,0,0,1,3.72,2.91C187.29,157.48,189.63,165.17,188.33,166.13Z" style="fill:#263238"></path><path d="M216.36,149.81c-2.18-1.65-5.2-10.19-6.61-13.71-1.45-3.68,1.53-19,2.54-23.61.42.41.81.85,1.18,1.29s.74.91,1.09,1.38a20.8,20.8,0,0,1,1.94,3,25,25,0,0,1,2.23,5.94C220,129.7,218.87,139.83,216.36,149.81Z" style="fill:#263238;opacity:0.2"></path><path d="M180,118.5a12.17,12.17,0,0,0,9.87,6.54c4.1.28,8.66-1.54,11-5,.07-.1.23,0,.16.11-2.47,3.74-6.58,6.34-11.2,5.91a12.52,12.52,0,0,1-10.08-7.38C179.67,118.46,179.92,118.33,180,118.5Z" style="fill:#263238"></path><path d="M199.08,92.15c6.82,1.75,12.23,7,13.65,12.27a13.65,13.65,0,0,1-.73,9c-.05.12-.29,0-.25-.08A15,15,0,0,0,208,98.51a19.28,19.28,0,0,0-16.15-5.87,12.18,12.18,0,0,0-7.58,3.63c-.19.22-.67-.06-.5-.29C186.58,92.13,192.9,90.56,199.08,92.15Z" style="fill:#263238"></path><path d="M155.77,97.72a15.51,15.51,0,0,1,8.35-6.63c4.81-1.62,9.48-.13,14.09,1.45a.11.11,0,0,1-.07.2c-3.92-1.34-8-2.46-12.12-1.43a15.29,15.29,0,0,0-8.57,5.63,14.89,14.89,0,0,0,1.8,19.4,15.14,15.14,0,0,0,11.34,3.89c.16,0,.22.23,0,.25a15.2,15.2,0,0,1-14.87-22.76Z" style="fill:#263238"></path><path d="M219.45,132.2s9.33-10.79,5.51-19.15c-2.17-4.73-12.54-6.55-12.54-6.55s-1.95-6.64-10-10.53S183,94.73,183,94.73s-7.08-6.53-15.7-3.91c-12,3.65-14.41,20.16-4.89,27.81,6.69,5.38,18.42,1.06,18.42,1.06.95.36,9.62,8.72,19.27,1.48,0,0,4.92,6.9,11.34,4.32C211.39,125.49,212.93,131.7,219.45,132.2Z" style="fill:#263238"></path><path d="M207.32,148.75S215.51,139,220,142s-2.29,17.65-8,19.24a5.67,5.67,0,0,1-7.31-3.7Z" style="fill:#ad6359"></path><path d="M218,146.12c.09,0,.1.12,0,.15-4,1.24-6.4,4.67-8.16,8.29,1.28-1.34,2.93-2,4.74-.45a.12.12,0,0,1-.12.2,3.48,3.48,0,0,0-3.93.89,16,16,0,0,0-2.1,2.93c-.22.33-.83.09-.66-.3a.59.59,0,0,1,0-.08C208.13,152.77,212.59,146.15,218,146.12Z" style="fill:#263238"></path><path d="M180.43,185.83l7.79,17.57L210.42,182l6.54,7s-21.25,34.63-21.44,33l-7.9-15.1L177.4,218l-.09-26.87Z" style="fill:#2563EB"></path><path d="M176.6,204.75c.14-4.44.15-8.91.48-13.34,0-.15.26-.23.3,0,1,4.25.44,21.21.61,25.26l0,0c.43-.48,9.49-9.76,9.59-9.62,1.68,2.38,7.47,13.38,7.88,14.38,3.22-5.81,17.82-26.79,21.68-32.32a.15.15,0,0,1,.27.15c-2.81,6.12-21.4,34.42-21.67,34.35a177,177,0,0,1-8.26-16c-1.52,2-10.63,12.43-10.69,11.78A141.86,141.86,0,0,1,176.6,204.75Z" style="fill:#263238"></path><rect x="119.72" y="227.69" width="90.24" height="8.95" transform="translate(327.51 -1.53) rotate(70.22)" style="fill:#c7c7c7"></rect><path d="M133.26,197.82h0a.64.64,0,0,1,.35-.8l12-5,.87,2.41L134,198.21A.63.63,0,0,1,133.26,197.82Z" style="fill:#c7c7c7"></path><path d="M134.72,201.87h0a.63.63,0,0,1,.35-.8l12-5,.87,2.42-12.47,3.79A.62.62,0,0,1,134.72,201.87Z" style="fill:#c7c7c7"></path><path d="M136.17,205.92h0a.64.64,0,0,1,.35-.8l12-5,.87,2.41L137,206.31A.65.65,0,0,1,136.17,205.92Z" style="fill:#c7c7c7"></path><path d="M137.63,210h0a.63.63,0,0,1,.35-.8l12-5,.87,2.41-12.47,3.79A.63.63,0,0,1,137.63,210Z" style="fill:#c7c7c7"></path><path d="M139.08,214h0a.63.63,0,0,1,.36-.8l12-5,.87,2.42-12.47,3.79A.63.63,0,0,1,139.08,214Z" style="fill:#c7c7c7"></path><path d="M140.54,218.06h0a.64.64,0,0,1,.35-.8l12-5,.87,2.41-12.47,3.8A.64.64,0,0,1,140.54,218.06Z" style="fill:#c7c7c7"></path><path d="M142,222.1h0a.63.63,0,0,1,.35-.8l12-5,.86,2.41-12.47,3.79A.62.62,0,0,1,142,222.1Z" style="fill:#c7c7c7"></path><path d="M143.45,226.15h0a.64.64,0,0,1,.35-.8l12-5,.87,2.42-12.47,3.79A.63.63,0,0,1,143.45,226.15Z" style="fill:#c7c7c7"></path><path d="M144.91,230.2h0a.63.63,0,0,1,.35-.8l12-5,.87,2.41-12.47,3.8A.63.63,0,0,1,144.91,230.2Z" style="fill:#c7c7c7"></path><path d="M146.36,234.24h0a.63.63,0,0,1,.35-.79l12-5,.87,2.41-12.47,3.8A.65.65,0,0,1,146.36,234.24Z" style="fill:#c7c7c7"></path><path d="M147.82,238.29h0a.63.63,0,0,1,.35-.8l12-5,.87,2.42-12.47,3.79A.63.63,0,0,1,147.82,238.29Z" style="fill:#c7c7c7"></path><path d="M149.27,242.34h0a.63.63,0,0,1,.36-.8l12-5,.87,2.42-12.47,3.79A.64.64,0,0,1,149.27,242.34Z" style="fill:#c7c7c7"></path><path d="M150.73,246.38h0a.63.63,0,0,1,.35-.79l12-5L164,243l-12.47,3.8A.64.64,0,0,1,150.73,246.38Z" style="fill:#c7c7c7"></path><path d="M152.19,250.43h0a.63.63,0,0,1,.35-.8l12-5,.86,2.42L153,250.82A.62.62,0,0,1,152.19,250.43Z" style="fill:#c7c7c7"></path><path d="M153.64,254.48h0a.64.64,0,0,1,.35-.8l12-5,.87,2.42-12.47,3.79A.63.63,0,0,1,153.64,254.48Z" style="fill:#c7c7c7"></path><path d="M155.1,258.53h0a.63.63,0,0,1,.35-.8l12-5,.87,2.41-12.47,3.8A.64.64,0,0,1,155.1,258.53Z" style="fill:#c7c7c7"></path><path d="M156.55,262.57h0a.64.64,0,0,1,.35-.8l12-5,.87,2.41L157.33,263A.63.63,0,0,1,156.55,262.57Z" style="fill:#c7c7c7"></path><path d="M158,266.62h0a.63.63,0,0,1,.35-.8l12-5,.87,2.42L158.79,267A.63.63,0,0,1,158,266.62Z" style="fill:#c7c7c7"></path><path d="M159.46,270.67h0a.63.63,0,0,1,.36-.8l12-5,.87,2.41-12.47,3.8A.64.64,0,0,1,159.46,270.67Z" style="fill:#c7c7c7"></path><path d="M160.92,274.71h0a.64.64,0,0,1,.35-.8l12-5,.87,2.41L161.7,275.1A.63.63,0,0,1,160.92,274.71Z" style="fill:#c7c7c7"></path><path d="M162.38,278.76h0a.63.63,0,0,1,.35-.8l12-5,.86,2.42-12.47,3.79A.62.62,0,0,1,162.38,278.76Z" style="fill:#c7c7c7"></path><polygon points="146.51 194.42 142.88 195.52 142.09 193.48 145.64 192 146.51 194.42" style="opacity:0.1"></polygon><polygon points="147.96 198.46 144.45 199.54 143.65 197.49 147.09 196.05 147.96 198.46" style="opacity:0.1"></polygon><polygon points="149.42 202.52 146.01 203.55 145.21 201.5 148.55 200.1 149.42 202.52" style="opacity:0.1"></polygon><polygon points="150.88 206.56 147.58 207.57 146.77 205.5 150.01 204.14 150.88 206.56" style="opacity:0.1"></polygon><polygon points="152.33 210.6 149.15 211.57 148.33 209.5 151.46 208.19 152.33 210.6" style="opacity:0.1"></polygon><polygon points="153.79 214.66 150.71 215.59 149.9 213.5 152.92 212.24 153.79 214.66" style="opacity:0.1"></polygon><polygon points="155.24 218.7 152.28 219.6 151.45 217.5 154.37 216.29 155.24 218.7" style="opacity:0.1"></polygon><polygon points="156.7 222.75 153.84 223.62 153.02 221.5 155.83 220.33 156.7 222.75" style="opacity:0.1"></polygon><polygon points="158.16 226.79 155.41 227.63 154.57 225.51 157.29 224.38 158.16 226.79" style="opacity:0.1"></polygon><polygon points="159.61 230.84 156.97 231.65 156.14 229.52 158.74 228.43 159.61 230.84" style="opacity:0.1"></polygon><polygon points="161.06 234.89 158.53 235.66 157.7 233.52 160.19 232.47 161.06 234.89" style="opacity:0.1"></polygon><polygon points="162.52 238.94 160.1 239.67 159.26 237.52 161.66 236.52 162.52 238.94" style="opacity:0.1"></polygon><polygon points="163.98 242.98 161.66 243.68 160.82 241.52 163.11 240.57 163.98 242.98" style="opacity:0.1"></polygon><polygon points="165.43 247.03 163.23 247.7 162.38 245.52 164.56 244.61 165.43 247.03" style="opacity:0.1"></polygon><polygon points="166.89 251.08 164.8 251.72 163.94 249.53 166.02 248.66 166.89 251.08" style="opacity:0.1"></polygon><polygon points="168.34 255.13 166.36 255.73 165.5 253.54 167.48 252.71 168.34 255.13" style="opacity:0.1"></polygon><polygon points="169.8 259.17 167.92 259.74 167.06 257.53 168.93 256.75 169.8 259.17" style="opacity:0.1"></polygon><polygon points="171.26 263.22 169.49 263.75 168.63 261.54 170.39 260.8 171.26 263.22" style="opacity:0.1"></polygon><polygon points="172.71 267.26 171.05 267.77 170.19 265.54 171.84 264.85 172.71 267.26" style="opacity:0.1"></polygon><polygon points="174.16 271.31 172.62 271.78 171.75 269.54 173.3 268.89 174.16 271.31" style="opacity:0.1"></polygon><polygon points="174.18 275.8 173.31 273.54 174.76 272.94 175.63 275.36 174.18 275.8" style="opacity:0.1"></polygon><path d="M285.58,325.55c-13.33,5-45.8.8-97.64-21.5-7.17-3.09,23-48.29,30.81-45.38,9.86,3.65,44.64,16.58,47.23,18.12C287.83,289.78,294.61,322.13,285.58,325.55Z" style="fill:#ad6359"></path><path d="M236.48,276.21s-2.35-2.43-12.67-17.25c-7.14-10.26-31.08-30.67-65.23-22.49-13.08,3.14-16.6,13.69-2.43,12.84,10-.59,16.85-1.86,20.16-1.14,0,0-11.39,10.23-10.38,19A164,164,0,0,0,170.21,290a33.89,33.89,0,0,0,4.35-.42A18.65,18.65,0,0,0,188.31,304Z" style="fill:#ad6359"></path><path d="M215.43,250.26c-6.35-1.59-19.87-4.73-31.83-3.45-13.27,1.42-38.47,7.74-37.32,17.53C147.13,271.52,157,270,157,270s-9.86,4.81-7.68,11.12c2,5.76,9.51,4.1,9.51,4.1s-5.48,3.94-2.5,9.12c3.59,6.22,14.49-3.06,23.57.11C181.9,295.11,215.43,250.26,215.43,250.26Z" style="fill:#ad6359"></path><path d="M187.45,260.59c-6.22-.51-20.65,1.94-30.38,9.1-.23.17-.22.42,0,.32a130.77,130.77,0,0,1,30.38-9.29A.07.07,0,0,0,187.45,260.59Z" style="fill:#263238"></path><path d="M188.49,274c-5.41.11-20.16,3.31-29.78,10.91-.22.17-.2.42,0,.3a140.34,140.34,0,0,1,29.77-11.08A.07.07,0,0,0,188.49,274Z" style="fill:#263238"></path><path d="M225.53,261.43a294.16,294.16,0,0,1,30.62,10c5,2,10.31,3.93,14.38,7.58a45.54,45.54,0,0,1,10.34,12.42A57.67,57.67,0,0,0,266.31,278a87.19,87.19,0,0,0-10.89-4.74c-8.81-3.44-21.32-8.14-29.89-11.85Z" style="fill:#263238"></path></g><g id="freepik--Line--inject-80"><path d="M47.44,466.53c129.77-.61,275.35-.62,405.12,0-129.77.62-275.35.61-405.12,0Z" style="fill:#263238"></path></g></svg>
